<?xml version="1.0" encoding="UTF-8"?>
<svg version="1.1" xmlns="http://www.w3.org/2000/svg" width="1555" height="1555">
<path d="M0 0 C0.83028654 -0.00282738 1.66057308 -0.00565475 2.51601982 -0.00856781 C6.93117444 -0.02344642 11.34629748 -0.03274083 15.76147461 -0.03710938 C19.3143164 -0.0414427 22.8669083 -0.05514845 26.41967773 -0.078125 C51.78720514 -0.23863111 76.83596111 0.76825489 102.08984375 3.203125 C103.17999786 3.30790161 104.27015198 3.41267822 105.39334106 3.52062988 C110.97168641 4.07415592 116.53209947 4.72259875 122.08984375 5.453125 C122.8906134 5.55605865 123.69138306 5.65899231 124.51641846 5.76504517 C190.81006134 14.33762351 256.33956377 31.54625671 318.08984375 57.203125 C319.2607959 57.6882959 320.43174805 58.1734668 321.63818359 58.67333984 C349.77712984 70.41403332 377.42800588 83.413063 403.74414062 98.84082031 C406.51648915 100.45090615 409.3210092 101.99548244 412.13256836 103.53564453 C431.52301209 114.20401133 449.94999638 126.55550481 468.08984375 139.203125 C468.74065918 139.65461914 469.39147461 140.10611328 470.06201172 140.57128906 C494.76462335 157.74684562 518.37242866 176.71326144 540.61328125 196.97265625 C542.68821415 198.84140496 544.78332031 200.67983686 546.890625 202.51171875 C557.72555022 211.97840679 568.02760589 222.0488039 578.21484375 232.203125 C578.99577393 232.97946289 579.7767041 233.75580078 580.58129883 234.55566406 C584.68748364 238.67290722 588.62081654 242.87649033 592.41455078 247.28271484 C595.17376934 250.44564302 598.07804731 253.46962129 600.96484375 256.515625 C605.79837842 261.65547458 610.41547321 266.88607934 614.8203125 272.40234375 C616.98927183 275.07901128 619.21777026 277.68775868 621.4753418 280.28930664 C627.10807221 286.78152243 632.48966477 293.42014709 637.65283203 300.29345703 C639.27948221 302.4551386 640.91721399 304.60822533 642.5546875 306.76171875 C655.44486275 323.76825439 667.70518793 341.15216881 679.08984375 359.203125 C679.59338379 359.9976709 680.09692383 360.7922168 680.61572266 361.61083984 C689.22651222 375.22759443 697.31419374 389.0942258 705.08984375 403.203125 C705.68023438 404.26885742 706.270625 405.33458984 706.87890625 406.43261719 C728.36814619 445.35328846 745.83867163 486.0945703 760.08984375 528.203125 C760.46270508 529.2972168 760.83556641 530.39130859 761.21972656 531.51855469 C776.16405349 575.67871729 786.47005384 621.08392215 793.08984375 667.203125 C793.18932312 667.89605652 793.28880249 668.58898804 793.39129639 669.30291748 C794.75027731 678.85955784 795.89679346 688.43100153 796.86981201 698.03448486 C797.01678809 699.48308597 797.16608953 700.93145298 797.31768799 702.37957764 C802.55511529 752.59235066 802.48389086 805.00973235 797.08984375 855.203125 C797.00263062 856.02806458 796.91541748 856.85300415 796.82556152 857.70294189 C788.37141376 937.17079205 768.53019279 1015.12669036 719.08984375 1125.203125 C718.66348633 1126.08307129 718.23712891 1126.96301758 717.79785156 1127.86962891 C705.4905406 1153.26016775 690.98546341 1177.48068926 675.83984375 1201.265625 C675.19039795 1202.28833496 674.54095215 1203.31104492 673.87182617 1204.36474609 C669.51307354 1211.16273972 664.88029575 1217.70432291 660.08984375 1224.203125 C659.28359919 1225.33297965 658.48075011 1226.46527751 657.68359375 1227.6015625 C645.33243662 1245.16048364 632.09196672 1262.01134015 618.18334961 1278.35595703 C615.18174469 1281.88831106 612.24784158 1285.46785558 609.33984375 1289.078125 C606.32405411 1292.78615105 603.20159158 1296.21376502 599.765625 1299.53125 C597.96384078 1301.32883425 596.31007119 1303.20972802 594.65234375 1305.140625 C592.23366596 1307.94888847 589.73084692 1310.60283093 587.08984375 1313.203125 C584.55169576 1315.70252264 582.14856072 1318.24094292 579.83984375 1320.953125 C573.14719507 1328.71782267 565.75110019 1335.92122902 557.94921875 1342.5625 C555.90683547 1344.36460289 554.00082664 1346.26251447 552.08984375 1348.203125 C548.91868345 1351.41747231 545.63401622 1354.42063463 542.2109375 1357.36328125 C539.86493317 1359.39821319 537.57247925 1361.48603467 535.27734375 1363.578125 C531.03543525 1367.40226978 526.68433278 1371.05201955 522.2421875 1374.640625 C519.90124494 1376.53333413 517.58735163 1378.45562675 515.28125 1380.390625 C505.60935872 1388.48380662 495.6743445 1396.10485289 485.45410156 1403.49169922 C483.13623059 1405.16954675 480.82700224 1406.85866897 478.51953125 1408.55078125 C468.23693195 1416.06876149 457.77187769 1423.26474088 447.08984375 1430.203125 C446.34686035 1430.68604004 445.60387695 1431.16895508 444.83837891 1431.66650391 C373.00571466 1478.14281184 293.92711938 1512.58308618 102.265625 1551.98309326 C100.81355251 1552.129938 99.36172602 1552.27923565 97.91015625 1552.43096924 C47.7001473 1557.66535154 -4.71981737 1557.60416485 -54.91015625 1552.203125 C-55.73273926 1552.11591187 -56.55532227 1552.02869873 -57.40283203 1551.93884277 C-139.49206343 1543.17504995 -219.58210868 1522.39203768 -308.91015625 1482.203125 C-309.88307617 1481.75727051 -310.85599609 1481.31141602 -311.85839844 1480.85205078 C-324.52945559 1475.02712684 -336.81210983 1468.62459109 -348.98876953 1461.83007812 C-352.04907033 1460.12576219 -355.11780028 1458.43732151 -358.1875 1456.75 C-371.0504718 1449.65210499 -383.62955633 1442.26628169 -395.91015625 1434.203125 C-396.94962402 1433.5220166 -397.9890918 1432.8409082 -399.06005859 1432.13916016 C-417.83924182 1419.8138569 -436.21260001 1407.04860121 -453.91015625 1393.203125 C-455.06099092 1392.31093085 -456.21203857 1391.41901137 -457.36328125 1390.52734375 C-464.81647898 1384.73578522 -472.09135673 1378.76780091 -479.25390625 1372.62109375 C-480.95701203 1371.16301026 -482.66724899 1369.71365648 -484.37890625 1368.265625 C-491.83453183 1361.94255183 -499.09590988 1355.44705126 -506.23291016 1348.76708984 C-507.94460904 1347.17099915 -509.66645384 1345.58650885 -511.390625 1344.00390625 C-518.71346742 1337.26051234 -525.8596949 1330.35604563 -532.91015625 1323.328125 C-533.69922363 1322.5436499 -534.48829102 1321.7591748 -535.30126953 1320.95092773 C-539.44245884 1316.79873165 -543.41385329 1312.56339298 -547.23925781 1308.11914062 C-549.99658818 1304.95731585 -552.89978894 1301.93512076 -555.78515625 1298.890625 C-560.62320449 1293.74597581 -565.24433873 1288.5104868 -569.65234375 1282.98828125 C-571.76520578 1280.38193069 -573.93855004 1277.84808185 -576.14331055 1275.32006836 C-582.85057869 1267.61745156 -589.08425086 1259.61514849 -595.21386719 1251.44824219 C-596.889647 1249.23026995 -598.58820789 1247.03168513 -600.29296875 1244.8359375 C-622.22236472 1216.38360743 -641.48331535 1185.58227958 -658.91015625 1154.203125 C-659.45784668 1153.21747559 -660.00553711 1152.23182617 -660.56982422 1151.21630859 C-704.05896087 1072.56363036 -733.39531825 986.07577664 -749.66015625 877.203125 C-749.7554361 876.4782489 -749.85071594 875.7533728 -749.94888306 875.00653076 C-753.91533874 844.38767826 -755.42638663 813.64935658 -755.30126953 782.79638672 C-755.28417924 778.55219536 -755.29438017 774.3085691 -755.31159306 770.06439686 C-755.39408822 745.98727618 -754.18491651 722.17082116 -751.91015625 698.203125 C-751.80791748 697.12266907 -751.70567871 696.04221313 -751.6003418 694.92901611 C-751.06470602 689.44514288 -750.43558405 683.97909687 -749.72265625 678.515625 C-749.57166977 677.33104202 -749.57166977 677.33104202 -749.41763306 676.12252808 C-745.30197974 644.09374561 -739.10187674 612.43100579 -730.91015625 581.203125 C-730.60142578 580.00333008 -730.29269531 578.80353516 -729.97460938 577.56738281 C-724.60383554 556.7826016 -717.96010142 536.46892072 -710.91015625 516.203125 C-710.49008301 514.99414551 -710.07000977 513.78516602 -709.63720703 512.53955078 C-686.47137812 446.55347605 -653.09507607 382.66695557 -611.91015625 326.203125 C-611.07121826 325.04756104 -611.07121826 325.04756104 -610.21533203 323.86865234 C-594.4989861 302.24729589 -577.92392919 281.23354567 -559.9375 261.4453125 C-558.17048426 259.49104076 -556.44102096 257.51252763 -554.72265625 255.515625 C-544.60816087 243.97559671 -533.87037693 233.06038625 -523.03515625 222.203125 C-522.4477063 221.61308685 -521.86025635 221.02304871 -521.25500488 220.41513062 C-515.52148512 214.66171529 -509.80815996 208.94414543 -503.62304688 203.67089844 C-500.8675948 201.30975564 -498.24378756 198.810126 -495.59765625 196.328125 C-490.78260182 191.84892341 -485.84483781 187.5954273 -480.71484375 183.4765625 C-478.16703434 181.41134652 -475.66722176 179.30336815 -473.17651367 177.17041016 C-466.82854493 171.73738737 -460.33137994 166.55429826 -453.65966797 161.52294922 C-451.81390655 160.13051463 -449.97340333 158.73129169 -448.1328125 157.33203125 C-411.52195576 129.59102586 -372.57440476 105.52880244 -331.91015625 84.203125 C-331.0068457 83.72810547 -330.10353516 83.25308594 -329.17285156 82.76367188 C-281.39463955 57.80624433 -229.92689645 39.10264277 -177.91015625 25.203125 C-176.25089111 24.75743164 -176.25089111 24.75743164 -174.55810547 24.30273438 C-131.42458801 12.83045594 -87.44563103 6.00633889 -43.03515625 1.96484375 C-42.00438461 1.8699617 -42.00438461 1.8699617 -40.95278931 1.77316284 C-27.29032778 0.57102527 -13.70837722 0.03242221 0 0 Z " fill="#FF8800" transform="translate(754.91015625,-0.203125)"/>
<path d="M0 0 C1.54334831 0.26153551 3.08698431 0.52137731 4.63085938 0.77978516 C23.03030326 3.8693009 41.25156219 7.13648456 59 13 C59.86915039 13.27360352 60.73830078 13.54720703 61.63378906 13.82910156 C86.00944563 21.50981466 108.70510065 33.17773039 131.44140625 44.70898438 C133.79809148 45.89812097 136.16180272 47.07092109 138.53125 48.234375 C139.1927002 48.56002441 139.85415039 48.88567383 140.53564453 49.22119141 C142.2180933 50.04790037 143.90194441 50.87175384 145.5859375 51.6953125 C148 53 148 53 150 55 C151.05747788 61.1472304 147.90887668 65.88385261 145.14453125 71.1484375 C144.39655525 72.60547592 144.39655525 72.60547592 143.63346863 74.09194946 C142.57730614 76.14397583 141.51533965 78.19302388 140.44799805 80.23925781 C138.82487376 83.35127578 137.21850891 86.47146709 135.61523438 89.59375 C134.58430588 91.59164797 133.55243492 93.58905997 132.51953125 95.5859375 C131.8035955 96.97224869 131.8035955 96.97224869 131.07319641 98.38656616 C123.92323273 112.07676727 123.92323273 112.07676727 121 115 C113.60598821 116.12472292 107.85880215 112.44146004 101.375 109.25 C98.8495142 108.04000609 96.3177138 106.84354746 93.78515625 105.6484375 C93.13832382 105.34225494 92.49149139 105.03607239 91.82505798 104.72061157 C52.29025174 86.08064325 4.24798108 67.04371625 -39.9765625 66.796875 C-40.81639679 66.78995132 -41.65623108 66.78302765 -42.52151489 66.77589417 C-45.22272446 66.75867799 -47.92373813 66.75230524 -50.625 66.75 C-51.54462524 66.74866058 -52.46425049 66.74732117 -53.41174316 66.74594116 C-67.1405499 66.75028629 -80.50832431 67.23462548 -94 70 C-95.19882812 70.23976563 -96.39765625 70.47953125 -97.6328125 70.7265625 C-100.77662823 71.41592932 -103.88294746 72.19925342 -107 73 C-108.23492187 73.27457031 -109.46984375 73.54914063 -110.7421875 73.83203125 C-138.46168019 80.0745456 -164.62126581 94.99745478 -180.46582031 119.06689453 C-191.9456456 137.32860555 -196.18161916 159.49889398 -191.86816406 180.69555664 C-185.40019238 208.45980539 -168.95994945 230.3967536 -144.90625 245.640625 C-120.01730503 260.91338668 -91.14807247 270.47719146 -64 281 C-63.30082458 281.27108582 -62.60164917 281.54217163 -61.88128662 281.82147217 C-55.81031088 284.17481126 -49.73892621 286.52706581 -43.6628418 288.8671875 C-38.14689183 290.99360108 -32.64023035 293.13745747 -27.15791321 295.34899902 C-20.8866021 297.87877898 -14.59401263 300.27006175 -8.1875 302.4375 C0.33205211 305.37784063 8.73374567 308.54217042 17.11132812 311.86279297 C19.90573402 312.96288954 22.70516045 314.04948114 25.50614929 315.13269043 C65.46515254 330.5928222 105.15759932 346.6303165 136.56787109 376.63525391 C137.94699053 377.94948467 139.34235213 379.24660661 140.73828125 380.54296875 C165.59813751 404.32352589 183.01928702 437.70995468 184.10839844 472.45849609 C184.15955573 475.69775925 184.18569642 478.93539773 184.18530273 482.17504883 C184.18747748 484.16687133 184.20595832 486.15865426 184.22460938 488.15039062 C184.24330659 500.77100852 183.01517692 513.01318328 179.375 525.125 C179.11557617 526.00333496 178.85615234 526.88166992 178.58886719 527.78662109 C171.60994415 550.83510898 162.16290309 572.16030005 147 591 C146.52304687 591.59651367 146.04609375 592.19302734 145.5546875 592.80761719 C112.2370055 634.07610966 59.74067469 658.88684999 8 667 C6.95175049 667.17354004 6.95175049 667.17354004 5.88232422 667.35058594 C-11.52356362 670.11290485 -29.43414012 669.26330557 -47 669 C-48.08861328 668.98598145 -49.17722656 668.97196289 -50.29882812 668.95751953 C-106.1124959 668.03740978 -162.08565363 655.7180019 -213 633 C-214.42989258 632.36239746 -214.42989258 632.36239746 -215.88867188 631.71191406 C-235.52986541 622.85137564 -254.28010451 612.26354501 -272 600 C-275.16520957 597.91633158 -278.33348143 595.83744177 -281.50390625 593.76171875 C-285.79994548 590.72961594 -285.79994548 590.72961594 -287 589 C-286.55617612 584.9934965 -285.1376169 582.11840902 -283.11328125 578.66796875 C-282.51104736 577.63309326 -281.90881348 576.59821777 -281.28833008 575.53198242 C-280.31029419 573.87646362 -280.31029419 573.87646362 -279.3125 572.1875 C-278.63830302 571.03592181 -277.96472727 569.88397972 -277.29174805 568.73168945 C-275.89835427 566.34779827 -274.50113947 563.96620318 -273.1015625 561.5859375 C-271.06004807 558.10923372 -269.04369942 554.61861219 -267.03125 551.125 C-265.79174046 548.97912404 -264.55216007 546.833289 -263.3125 544.6875 C-262.73733643 543.68678467 -262.16217285 542.68606934 -261.56958008 541.6550293 C-260.0764058 539.08361155 -258.55050151 536.53713419 -257 534 C-256.35417969 532.93394531 -255.70835937 531.86789062 -255.04296875 530.76953125 C-253 529 -253 529 -249.71875 528.921875 C-245.45959883 530.15667093 -242.22609944 531.90055388 -238.5 534.25 C-236.99211943 535.16739595 -235.48293359 536.0826489 -233.97265625 536.99609375 C-233.16973145 537.4844873 -232.36680664 537.97288086 -231.53955078 538.47607422 C-223.14332053 543.51445811 -214.55236213 548.23342802 -206 553 C-204.53119385 553.81887695 -204.53119385 553.81887695 -203.03271484 554.65429688 C-164.41928425 576.09274885 -125.75785573 591.94627738 -82 599 C-81.2270459 599.13277344 -80.4540918 599.26554687 -79.65771484 599.40234375 C-31.70349645 607.52592298 21.08033444 596.81454821 60.82568359 568.70898438 C78.99435353 555.56972129 90.24827478 539.84706449 96.75 518.375 C96.96108398 517.68237061 97.17216797 516.98974121 97.38964844 516.27612305 C103.44177942 495.26012306 101.043985 470.3917996 91 451 C74.71460077 422.48854147 47.68932598 409.47060611 18.1875 398.5 C16.11328635 397.71864801 14.03956537 396.93598705 11.96630859 396.15209961 C7.71485395 394.54520281 3.46175915 392.94276956 -0.79248047 391.34326172 C-9.27981366 388.14621648 -17.73904277 384.8771513 -26.19589233 381.60049438 C-28.88905245 380.55705551 -31.58275766 379.51503557 -34.27661133 378.47338867 C-39.85173024 376.31728552 -45.4259903 374.15896892 -51 372 C-51.99616333 371.61416748 -52.99232666 371.22833496 -54.01867676 370.83081055 C-66.46278085 366.0105958 -78.90512528 361.18586673 -91.34571838 356.3565979 C-96.82747424 354.22919048 -102.31082839 352.10599998 -107.79623413 349.98802185 C-157.90425957 330.64025007 -157.90425957 330.64025007 -176 321 C-176.70785645 320.62939453 -177.41571289 320.25878906 -178.14501953 319.87695312 C-194.88251143 311.08199563 -209.83508775 300.49398426 -224 288 C-224.85851562 287.27554687 -225.71703125 286.55109375 -226.6015625 285.8046875 C-255.53808003 260.91009622 -270.74437954 224.57214909 -273.85614014 187.0723877 C-275.15942362 168.29780674 -275.56258364 148.34260117 -271 130 C-270.69449219 128.72125 -270.38898438 127.4425 -270.07421875 126.125 C-265.03290876 107.10376806 -255.11803407 89.36270942 -243 74 C-242.54125488 73.41573242 -242.08250977 72.83146484 -241.60986328 72.22949219 C-221.60150667 47.05513208 -195.26611253 26.85415747 -165.5625 14.4375 C-164.43432861 13.96497803 -163.30615723 13.49245605 -162.14379883 13.00561523 C-145.27485002 6.09230652 -127.97752823 1.83955676 -110 -1 C-109.1042627 -1.15098145 -108.20852539 -1.30196289 -107.28564453 -1.45751953 C-72.46805328 -7.12294117 -34.65845019 -6.18159328 0 0 Z " fill="#FFFEFE" transform="translate(544,446)"/>
<path d="M0 0 C1.12970215 0.2077002 2.2594043 0.41540039 3.42333984 0.62939453 C15.88494737 2.96059184 28.04230933 5.75948499 40 10 C41.2379834 10.43844238 41.2379834 10.43844238 42.50097656 10.88574219 C58.64650442 16.64650442 58.64650442 16.64650442 60 18 C60.27446695 23.68271347 59.65385024 28.57349068 58.25 34.0625 C58.06880615 34.79855469 57.8876123 35.53460938 57.70092773 36.29296875 C57.14533068 38.53170513 56.57512011 40.76620741 56 43 C55.67644531 44.26714844 55.35289062 45.53429687 55.01953125 46.83984375 C53.25038514 53.60592501 51.36727606 60.34062845 49.4375 67.0625 C49.23970947 67.76503906 49.04191895 68.46757813 48.83813477 69.19140625 C47.61631421 73.38338441 46.06863182 77.15654204 44 81 C37.27694686 81.28152366 32.05915335 80.42072517 25.6875 78.375 C7.30819132 72.84188856 -11.49874314 69.25134563 -30.4375 66.25 C-31.67862549 66.05140381 -32.91975098 65.85280762 -34.19848633 65.64819336 C-53.36894502 62.72231447 -72.24038597 61.69460396 -91.63110352 61.79418945 C-95.32510251 61.81256268 -99.01885039 61.81469739 -102.71289062 61.81445312 C-120.29577957 61.8389409 -137.40115375 62.44854813 -154.8125 65.125 C-155.51866455 65.23292877 -156.2248291 65.34085754 -156.95239258 65.45205688 C-201.12143514 72.29741848 -244.22322748 88.85749223 -276.53710938 120.56787109 C-277.97310933 121.97367479 -279.43171896 123.3562635 -280.890625 124.73828125 C-291.73811426 135.20701739 -300.21421233 147.15053625 -308 160 C-308.55469971 160.90975586 -308.55469971 160.90975586 -309.12060547 161.83789062 C-322.39430518 183.83595262 -330.9597908 208.12821577 -337 233 C-337.27585937 234.10988281 -337.55171875 235.21976563 -337.8359375 236.36328125 C-339.63562875 244.13291608 -340.85212088 251.99553798 -342.0625 259.875 C-342.22500244 260.90689453 -342.38750488 261.93878906 -342.55493164 263.00195312 C-345.58161872 283.4240126 -346.4382248 303.94012997 -346.4375 324.5625 C-346.43923218 325.7502301 -346.44096436 326.93796021 -346.44274902 328.16168213 C-346.42943996 349.11399494 -344.726723 369.36762845 -341.31958008 390.01928711 C-340.82652477 393.07517533 -340.39135318 396.13896483 -339.953125 399.203125 C-331.73349665 455.55018095 -308.06247736 510.46279231 -262 546 C-261.38882324 546.47501953 -260.77764648 546.95003906 -260.14794922 547.43945312 C-228.12816985 571.99415132 -189.32606309 583.56746165 -150 590 C-148.50944092 590.2477417 -148.50944092 590.2477417 -146.98876953 590.50048828 C-89.68794591 599.66066293 -28.5868048 588.21293444 26.88549805 573.828125 C32.39482053 572.44018428 37.31864327 571.33748755 43 572 C51.51706507 577.98987035 52.59596994 595.37313962 54.80615234 604.8894043 C55.95056054 609.79089003 57.15464001 614.62700965 58.65234375 619.43359375 C59.68230579 622.78576209 60.45304197 625.84140843 60.5 629.375 C60.54640625 630.56222656 60.54640625 630.56222656 60.59375 631.7734375 C59.66375097 635.26093386 58.05694192 636.09798751 55 638 C51.52381967 639.48260083 47.97154368 640.65738026 44.375 641.8125 C43.32248047 642.15506836 42.26996094 642.49763672 41.18554688 642.85058594 C33.34551179 645.35395206 25.45309392 647.6346422 17.5 649.75 C16.50790527 650.01917236 15.51581055 650.28834473 14.49365234 650.56567383 C-6.24609545 655.89739296 -27.46277204 657.91572443 -48.75 659.625 C-51.19798904 659.82986625 -53.64590616 660.03559365 -56.09375 660.2421875 C-68.37886457 661.2701583 -80.66994856 662.22178719 -92.96484375 663.125 C-94.07152405 663.20811432 -95.17820435 663.29122864 -96.31842041 663.37686157 C-116.15402568 664.80208156 -135.56286592 664.20795539 -155.3125 662.1875 C-156.12812408 662.10481873 -156.94374817 662.02213745 -157.78408813 661.93695068 C-168.64601185 660.81343112 -179.29755642 659.15461735 -190 657 C-192.00118968 656.6192005 -194.0024822 656.23894078 -196.00390625 655.859375 C-251.16810646 645.01354875 -300.53239392 619.98028212 -341 581 C-341.55316895 580.46874512 -342.10633789 579.93749023 -342.67626953 579.39013672 C-376.10722329 547.10966029 -397.80012434 504.86638938 -412 461 C-412.53753906 459.37602295 -412.53753906 459.37602295 -413.0859375 457.71923828 C-422.00459122 430.69018077 -427.82974527 403.97905913 -428.57128906 375.51342773 C-428.73841785 369.98521077 -429.13826936 364.53145985 -429.73408508 359.03578186 C-431.07547136 346.46331732 -431.33928966 333.98342648 -431.31567383 321.34545898 C-431.31251887 317.8335037 -431.33606653 314.32239873 -431.36132812 310.81054688 C-431.40491878 295.01376423 -430.16529036 279.64063869 -428 264 C-427.78951775 262.44526978 -427.78951775 262.44526978 -427.57478333 260.85913086 C-422.3441194 222.45944106 -412.21916235 184.7801283 -395 150 C-394.61875977 149.2251123 -394.23751953 148.45022461 -393.84472656 147.65185547 C-382.04236493 123.90397688 -367.28997527 101.24566768 -349 82 C-347.78427491 80.6105999 -346.57537389 79.21518409 -345.375 77.8125 C-339.37865686 70.95156784 -332.93203548 64.95812839 -325.81640625 59.265625 C-324.05131551 57.84571844 -322.3054783 56.40115795 -320.58984375 54.921875 C-306.79368459 43.11533626 -291.02731955 33.46325731 -275 25 C-274.09266113 24.51055908 -274.09266113 24.51055908 -273.16699219 24.01123047 C-238.18054008 5.21184354 -200.82017097 -3.14372937 -161.57714844 -6.67529297 C-158.28105067 -6.9744883 -154.98856628 -7.30020598 -151.6953125 -7.62890625 C-101.63470533 -12.30952968 -49.37105793 -9.21452723 0 0 Z " fill="#FFFEFE" transform="translate(1242,452)"/>
</svg>
